<svg width="676" height="216" viewBox="0 0 676 216" fill="none" xmlns="http://www.w3.org/2000/svg">
<path d="M76.1553 168.709C72.5566 186.216 56.8004 199.152 38.5153 199.152C17.2152 199.152 0 181.84 0 160.734C0 139.434 17.2152 122.219 38.5153 122.219C56.8976 122.219 72.4594 135.154 76.1553 152.661H50.4784C47.8524 148.771 43.5729 146.242 38.5153 146.242C30.4427 146.242 24.0234 152.661 24.0234 160.734C24.0234 168.807 30.4427 175.129 38.5153 175.129C43.5729 175.129 47.8524 172.6 50.4784 168.709H76.1553ZM89.7916 160.734C89.7916 139.434 107.007 122.219 128.307 122.219C149.607 122.219 166.725 139.434 166.725 160.734C166.725 181.84 149.607 199.152 128.307 199.152C107.007 199.152 89.7916 181.84 89.7916 160.734ZM113.815 160.734C113.815 168.807 120.234 175.129 128.307 175.129C136.38 175.129 142.701 168.807 142.701 160.734C142.701 152.661 136.38 146.242 128.307 146.242C120.234 146.242 113.815 152.661 113.815 160.734ZM181.413 123.775H206.506V174.059H226.931V197.596H181.413V123.775ZM241.57 123.775H266.664V174.059H287.088V197.596H241.57V123.775ZM300.658 160.734C300.658 139.434 317.873 122.219 339.173 122.219C360.473 122.219 377.591 139.434 377.591 160.734C377.591 181.84 360.473 199.152 339.173 199.152C317.873 199.152 300.658 181.84 300.658 160.734ZM324.681 160.734C324.681 168.807 331.1 175.129 339.173 175.129C347.246 175.129 353.568 168.807 353.568 160.734C353.568 152.661 347.246 146.242 339.173 146.242C331.1 146.242 324.681 152.661 324.681 160.734ZM392.279 123.775H423.013C443.535 123.775 460.07 140.115 460.07 160.734C460.07 181.256 443.535 197.596 423.013 197.596H392.279V123.775ZM423.013 174.059C430.405 174.059 436.533 168.223 436.533 160.734C436.533 153.245 430.405 147.312 423.013 147.312H417.372V174.059H423.013ZM474.757 123.775H499.948V197.596H474.757V123.775ZM514.658 160.734C514.658 139.434 531.873 122.219 553.174 122.219C574.474 122.219 591.592 139.434 591.592 160.734C591.592 181.84 574.474 199.152 553.174 199.152C531.873 199.152 514.658 181.84 514.658 160.734ZM538.682 160.734C538.682 168.807 545.101 175.129 553.174 175.129C561.246 175.129 567.568 168.807 567.568 160.734C567.568 152.661 561.246 146.242 553.174 146.242C545.101 146.242 538.682 152.661 538.682 160.734ZM606.28 123.775H629.33L650.533 155.968V123.775H674.654V197.596H651.603L630.4 164.43V197.596H606.28V123.775Z" fill="#FFBF00"/>
<path d="M277.006 17.5364C277.006 16.9842 276.699 16.7081 276.086 16.7081C273.693 16.7081 268.109 21.31 259.335 30.5137C263.507 29.7774 267.495 27.8446 271.3 24.7154C275.104 21.5861 277.006 19.1931 277.006 17.5364ZM222.888 25.6357C222.888 27.2924 221.17 29.9308 217.734 33.551C214.359 37.1098 211.475 38.8891 209.082 38.8891C207.364 38.8891 206.505 38.1222 206.505 36.5882C206.505 33.5816 208.867 30.0535 213.592 26.0039C218.317 21.8929 223.563 19.8374 229.33 19.8374C231.294 19.8374 233.748 20.6657 236.693 22.3224C239.639 23.9177 242.799 25.6357 246.173 27.4765C249.609 29.3172 252.708 30.391 255.469 30.6978C265.777 20.5123 272.772 15.4196 276.454 15.4196C277.926 15.4196 278.663 15.9718 278.663 17.0762C278.663 19.2238 276.515 21.9849 272.22 25.3596C267.986 28.673 263.384 30.7285 258.414 31.5261C248.965 41.5889 238.749 53.6765 227.766 67.789C216.844 81.84 211.383 89.786 211.383 91.6267C211.383 91.8108 211.445 91.9028 211.567 91.9028C211.751 91.9028 211.935 91.8415 212.119 91.7187C212.365 91.596 212.61 91.4426 212.856 91.2586C213.163 91.1358 213.408 91.0131 213.592 90.8904C213.776 90.7677 213.899 90.7063 213.96 90.7063C214.022 90.7063 214.052 90.7984 214.052 90.9824C214.052 91.6574 212.978 92.7618 210.831 94.2958C208.745 95.8298 207.303 96.5967 206.505 96.5967C205.523 96.5967 205.033 96.0445 205.033 94.9401C205.033 92.0562 210.555 83.4967 221.599 69.2616C232.705 55.0264 243.596 42.54 254.273 31.8023C250.714 31.7409 247.493 31.1887 244.609 30.1456C241.786 29.0411 239.608 27.8753 238.074 26.6481C233.902 23.3348 229.821 21.6781 225.833 21.6781C221.906 21.6781 218.163 23.5189 214.604 27.2004C211.046 30.8819 209.266 33.8884 209.266 36.2201C209.266 36.9564 209.573 37.3245 210.187 37.3245C211.905 37.3245 213.991 36.0053 216.445 33.3669C218.961 30.7285 220.71 28.2435 221.691 25.9118C221.998 25.3596 222.213 25.0835 222.336 25.0835C222.704 25.0835 222.888 25.2676 222.888 25.6357ZM264.629 45.792L251.284 61.3463C256.131 58.0943 263.586 51.3449 273.649 41.0981C283.712 30.8512 288.743 24.746 288.743 22.7826C288.743 22.4758 288.59 22.3224 288.283 22.3224C287.976 22.3224 287.638 22.4144 287.27 22.5985C283.282 24.8074 278.435 29.3172 272.728 36.128C272.483 36.3735 271.194 37.9074 268.863 40.7299C266.593 43.491 265.181 45.1784 264.629 45.792ZM290.952 21.7702C290.952 24.654 285.614 31.4034 274.937 42.0184C264.322 52.5721 255.425 60.2112 248.246 64.9358L246.774 66.6845C245.24 68.0958 242.141 71.9307 237.478 78.1892C237.11 78.8028 236.926 79.1403 236.926 79.2016C236.926 79.263 236.956 79.2937 237.018 79.2937C237.141 79.2937 237.509 79.1096 238.122 78.7414C238.736 78.3119 241.037 76.6553 245.025 73.7714C254.229 67.0833 260.948 62.6962 265.181 60.61C265.549 60.4873 265.795 60.426 265.918 60.426C266.593 60.426 266.93 61.0089 266.93 62.1747C266.93 63.2791 266.04 65.0278 264.261 67.4208C262.482 69.7524 260.518 71.9307 258.371 73.9555C252.603 79.4164 249.719 82.4843 249.719 83.1592C249.719 83.5274 249.842 83.7115 250.087 83.7115C253.523 82.607 256.53 81.2878 259.107 79.7539L268.127 74.0475L268.219 75.244C261.776 79.5391 256.959 82.2696 253.769 83.4354C250.639 84.6012 248.615 85.1841 247.694 85.1841C246.835 85.1841 246.406 84.908 246.406 84.3557C246.406 83.2513 247.97 81.0424 251.1 77.729C254.229 74.4157 257.327 71.1944 260.395 68.0651C263.525 64.8744 265.089 62.9723 265.089 62.3587C265.089 62.236 264.997 62.1747 264.813 62.1747C264.015 62.1747 260.211 64.4756 253.4 69.0775C246.59 73.6794 241.466 77.2995 238.03 79.9379C234.655 82.515 232.784 84.0183 232.416 84.4478C232.048 84.8159 231.097 85.092 229.563 85.2761C228.949 85.2761 228.642 85.1227 228.642 84.8159C228.642 84.5091 229.072 83.7728 229.931 82.607C234.349 77.2075 241.466 68.8014 251.284 57.3887C261.101 45.9147 266.378 39.8402 267.114 39.1653C267.85 38.429 268.893 37.3552 270.243 35.9439C271.655 34.5327 272.882 33.3055 273.925 32.2624C275.029 31.158 276.41 29.8388 278.067 28.3048C279.785 26.7095 281.257 25.3903 282.484 24.3472C285.614 21.7702 287.915 20.4816 289.387 20.4816C289.817 20.4816 290.185 20.635 290.492 20.9418C290.798 21.1872 290.952 21.4634 290.952 21.7702ZM290.056 61.3463C290.056 61.1623 289.933 61.0702 289.688 61.0702C288.031 61.0702 285.454 62.5121 281.957 65.396C278.459 68.2798 275.422 71.4398 272.845 74.8759C275.913 73.8941 279.533 71.6852 283.705 68.2492C287.939 64.8131 290.056 62.5121 290.056 61.3463ZM268.795 83.0672C268.795 83.8649 269.102 84.2637 269.716 84.2637C270.452 84.2637 272.109 83.7728 274.686 82.7911C277.263 81.748 279.38 80.7356 281.036 79.7539L290.056 74.0475L290.148 75.244C283.705 79.5391 278.889 82.2696 275.698 83.4354C272.569 84.6012 270.483 85.1841 269.439 85.1841C267.721 85.1841 266.862 84.1103 266.862 81.9628C266.862 79.0789 267.906 76.1951 269.992 73.3112C272.078 70.4274 274.502 68.0651 277.263 66.2243C280.085 64.3836 282.785 62.8803 285.362 61.7145C288 60.5487 289.995 59.9658 291.344 59.9658C292.694 59.9658 293.369 60.426 293.369 61.3463C293.369 63.6166 290.669 66.3777 285.27 69.6297C279.932 72.8817 275.483 75.0293 271.924 76.0724C269.838 79.0789 268.795 81.4105 268.795 83.0672ZM315.136 96.0445C315.382 96.0445 315.842 95.707 316.517 95.0321C317.192 94.3572 319.554 91.504 323.604 86.4726C321.088 86.2885 318.879 85.4602 316.977 83.9876C315.075 82.4536 313.786 80.6436 313.111 78.5574C313.05 78.3733 312.958 78.2813 312.835 78.2813C312.774 78.2813 312.651 79.1403 312.467 80.8583C312.344 82.515 312.283 84.7239 312.283 87.485C312.283 93.1913 313.234 96.0445 315.136 96.0445ZM351.399 75.244C347.227 78.0051 342.747 80.4595 337.961 82.607C333.237 84.7546 329.249 86.0124 325.997 86.3806L316.333 97.241C315.412 98.2227 314.615 98.7136 313.94 98.7136C311.485 98.7136 310.258 95.7991 310.258 89.97C310.258 84.3251 311.086 78.6187 312.743 72.851C313.357 70.7035 313.878 69.6297 314.308 69.6297L315.228 70.5501C314.921 71.9613 314.768 73.1885 314.768 74.2316C314.768 77.4222 315.719 79.9686 317.621 81.8707C319.523 83.7728 321.886 84.8159 324.708 85C337.471 69.2309 350.049 53.3084 362.443 37.2325C361.032 38.2142 359.805 39.0732 358.762 39.8095C357.719 40.5458 355.234 42.1718 351.307 44.6875C347.38 47.2032 343.852 49.2894 340.723 50.9461C337.655 52.5414 334.188 54.0754 330.322 55.548C326.518 56.9592 323.328 57.6648 320.75 57.6648C317.13 57.6648 315.32 55.8241 315.32 52.1426C315.32 49.8723 316.026 47.2339 317.437 44.2273C318.848 41.2208 320.965 38.1528 323.788 35.0236C326.672 31.8329 329.954 28.9184 333.636 26.28C337.379 23.5802 341.827 21.3713 346.981 19.6533C352.197 17.9353 357.565 17.0762 363.088 17.0762C365.849 17.0762 367.229 17.9659 367.229 19.7453C367.229 21.6474 365.849 24.0711 363.088 27.0163C360.388 29.9001 357.044 32.4772 353.056 34.7475C349.067 37.0177 345.509 38.1529 342.379 38.1529C341.275 38.0915 340.723 37.6313 340.723 36.7723C340.723 35.9133 341.091 35.0542 341.827 34.1952C342.625 33.3362 343.238 32.9067 343.668 32.9067C344.159 32.9067 344.404 32.9987 344.404 33.1828C344.404 33.3669 344.251 33.6123 343.944 33.9191C343.637 34.1646 343.484 34.41 343.484 34.6554C343.484 34.8395 343.668 34.9315 344.036 34.9315C346.306 34.9315 349.221 33.9805 352.78 32.0784C356.338 30.1763 359.437 28.0287 362.075 25.6357C364.714 23.1814 366.033 21.2793 366.033 19.9294C366.033 18.7636 365.021 18.1807 362.996 18.1807C358.455 18.1807 353.393 19.5919 347.81 22.4144C342.226 25.1755 337.225 28.4582 332.807 32.2624C328.451 36.0667 324.769 39.9629 321.763 43.9512C318.756 47.8782 317.253 50.9768 317.253 53.247C317.253 55.3946 318.634 56.4683 321.395 56.4683C325.444 56.4683 330.967 54.6889 337.961 51.1302C345.018 47.51 351.154 43.8592 356.369 40.1777C361.584 36.4962 364.622 34.0418 365.481 32.8147C365.91 32.2624 366.647 31.9863 367.69 31.9863C368.794 31.9863 369.346 32.2931 369.346 32.9067C369.346 33.5203 369.009 34.3179 368.334 35.2997C357.044 50.2711 343.361 66.8379 327.285 85C333.482 84.2637 341.06 80.889 350.018 74.8759L356.185 71.0103C356.614 70.7648 357.075 70.6421 357.565 70.6421C358.056 70.6421 358.302 70.7035 358.302 70.8262C358.302 70.9489 358.21 71.0716 358.026 71.1944L351.399 75.244ZM381.06 71.2864L381.797 72.1147C378.974 73.8328 376.673 75.2747 374.894 76.4405C373.114 77.6063 371.764 78.1892 370.844 78.1892C369.494 78.1892 368.819 77.6063 368.819 76.4405C368.819 75.5815 369.279 73.8941 370.2 71.3784C371.182 68.8014 371.856 66.9913 372.225 65.9482L371.949 65.6721C371.703 65.6721 371.427 65.7948 371.12 66.0402C364.923 71.0103 360.904 74.3543 359.063 76.0724C357.284 77.7904 355.535 79.6311 353.817 81.5946C352.16 83.5581 351.24 84.6318 351.056 84.8159C350.933 85 350.841 85.1227 350.78 85.1841C350.596 85.3682 349.982 85.4602 348.939 85.4602C347.835 85.4602 347.282 85.3682 347.282 85.1841C347.405 85 348.172 84.141 349.583 82.607C353.019 78.8642 356.118 75.2747 358.879 71.8386L356.21 73.4033C353.388 75.1213 351.332 76.4098 350.044 77.2688L349.675 76.2564L355.474 72.5749C357.56 71.225 359.339 69.8138 360.812 68.3412C362.346 66.8686 363.389 65.6721 363.941 64.7517C364.493 63.8313 364.984 63.0644 365.414 62.4508C365.843 61.8372 366.242 61.5304 366.61 61.5304C366.978 61.5304 367.561 61.7452 368.359 62.1747C368.359 62.7883 367.868 63.862 366.886 65.396C365.905 66.9299 364.923 68.3105 363.941 69.5377L362.469 71.2864C362.469 71.4091 362.499 71.4705 362.561 71.4705C362.745 71.4705 362.96 71.3784 363.205 71.1944C363.45 70.9489 364.463 70.0899 366.242 68.6173C368.083 67.0833 369.678 65.7948 371.028 64.7517C372.378 63.6473 373.912 62.6042 375.63 61.6224C377.409 60.6407 378.698 60.1498 379.496 60.1498C380.293 60.1498 380.692 60.3339 380.692 60.7021C380.692 61.1929 379.189 62.236 376.182 63.8313C375.507 64.1995 374.464 65.9789 373.053 69.1695C371.703 72.2988 371.028 74.5997 371.028 76.0724C371.028 76.3791 371.304 76.5325 371.856 76.5325C372.47 76.5325 373.636 75.9803 375.354 74.8759L381.06 71.2864ZM408.498 74.0475L408.59 75.244C398.711 81.8094 392.698 85.092 390.55 85.092C390.182 85.092 389.998 84.8773 389.998 84.4478C389.998 83.1592 390.489 81.3185 391.471 78.9255L391.931 77.637C391.931 77.5143 391.808 77.4529 391.563 77.4529C391.379 77.4529 389.599 78.6801 386.224 81.1344C382.911 83.5888 380.733 84.8159 379.69 84.8159C378.708 84.8159 378.217 83.8955 378.217 82.0548C378.217 76.962 381.101 71.992 386.869 67.1447C392.698 62.2974 399.693 59.8737 407.853 59.8737C408.59 59.8737 408.958 60.1805 408.958 60.7941C408.958 61.4077 406.074 64.9972 400.306 71.5625C394.539 78.0665 391.655 81.9934 391.655 83.3433C391.655 83.5888 391.839 83.7115 392.207 83.7115C392.575 83.7115 394.14 82.9138 396.901 81.3185C399.662 79.7232 402.27 78.1279 404.724 76.5325L408.498 74.0475ZM393.864 74.1396C394.907 73.3419 396.931 71.225 399.938 67.789C402.945 64.3529 404.448 62.3587 404.448 61.8065C404.448 61.5611 404.202 61.4384 403.712 61.4384C400.889 61.4384 397.606 62.7576 393.864 65.396C390.121 67.973 386.93 70.9182 384.292 74.2316C381.715 77.545 380.426 80.214 380.426 82.2389C380.426 82.607 380.61 82.7911 380.978 82.7911C381.346 82.7911 381.929 82.5763 382.727 82.1468C383.586 81.656 384.598 81.0117 385.764 80.214C386.991 79.355 388.035 78.6187 388.894 78.0051C391.839 75.7962 393.495 74.5077 393.864 74.1396ZM409.317 75.9803L409.04 74.8759L412.078 72.9431C416.68 69.8752 419.563 67.7276 420.729 66.5004C421.895 65.2119 422.601 64.4143 422.846 64.1075C424.441 62.0826 425.331 60.9475 425.515 60.7021C426.251 60.9475 426.62 61.6838 426.62 62.911C425.392 64.6904 423.736 66.8379 421.65 69.3536C419.563 71.8079 417.845 73.8634 416.495 75.5201C415.146 77.1154 414.471 78.0358 414.471 78.2813C414.471 78.5267 414.501 78.6494 414.563 78.6494C414.685 78.6494 415.146 78.3426 415.943 77.729C416.802 77.0541 419.073 75.4281 422.754 72.851C430.178 67.6969 434.903 64.4449 436.928 63.095C438.953 61.6838 440.241 60.9782 440.793 60.9782C441.407 60.9782 441.714 61.5918 441.714 62.8189C441.714 63.9847 440.793 65.7641 438.953 68.1571C437.112 70.5501 435.087 72.759 432.878 74.7838C426.988 80.1834 424.043 83.1592 424.043 83.7115C424.043 83.7728 424.165 83.8035 424.411 83.8035C425.147 83.8035 429.289 81.3799 436.836 76.5325L440.609 74.0475L440.701 75.244C430.823 81.8094 424.81 85.092 422.662 85.092C422.294 85.092 422.11 84.908 422.11 84.5398C422.11 82.2696 423.521 79.6005 426.343 76.5325C429.227 73.4033 432.081 70.6115 434.903 68.1571C437.725 65.6414 439.137 63.9847 439.137 63.1871C439.137 63.0644 439.075 63.003 438.953 63.003C437.173 63.862 433.032 66.5925 426.528 71.1944C420.085 75.7349 416.311 78.404 415.207 79.2016C412.323 81.3492 410.789 82.4843 410.605 82.607C410.482 82.6684 410.176 82.9752 409.685 83.5274C408.58 84.6932 407.568 85.2761 406.647 85.2761C405.175 85.1534 404.408 85.0614 404.346 85C404.285 84.9386 404.254 84.8773 404.254 84.8159C404.254 84.7546 404.776 84.1717 405.819 83.0672C406.801 82.0241 407.783 80.981 408.764 79.9379C412.016 76.3178 414.256 73.7407 415.483 72.2068L409.317 75.9803ZM441.272 83.4354C442.928 83.4354 447.009 81.0424 453.513 76.2564C460.017 71.4091 464.68 66.7766 467.502 62.3587C467.502 61.9292 467.134 61.7145 466.398 61.7145C464.68 61.7145 461.765 63.003 457.654 65.5801C453.543 68.1571 449.708 71.1944 446.15 74.6918C442.652 78.1279 440.903 80.889 440.903 82.9752C440.903 83.282 441.026 83.4354 441.272 83.4354ZM453.973 85.5522C453.236 85.5522 452.868 85.1534 452.868 84.3557C452.868 83.4967 453.052 82.6377 453.421 81.7787C453.85 80.9197 454.464 79.8459 455.261 78.5574C456.304 76.9007 456.979 75.6428 457.286 74.7838L457.194 74.6918C447.929 81.4412 442.223 84.8159 440.075 84.8159C439.4 84.8159 439.063 84.2023 439.063 82.9752C439.063 79.7845 440.198 76.7166 442.468 73.7714C444.8 70.8262 447.591 68.4332 450.843 66.5925C454.095 64.6904 457.347 63.1871 460.599 62.0826C463.851 60.9782 466.582 60.426 468.791 60.426C481.124 46.8657 490.757 35.6065 497.691 26.6481C499.102 24.8074 500.697 23.8563 502.477 23.795C503.029 23.795 503.305 24.0404 503.305 24.5313C503.305 25.0221 499.225 29.9001 491.064 39.1653C482.903 48.4304 474.743 57.8796 466.582 67.5129C458.421 77.1461 454.341 82.6684 454.341 84.0796C454.341 84.3251 454.494 84.4478 454.801 84.4478C455.108 84.4478 456.335 83.9262 458.483 82.8831C460.63 81.84 462.563 80.7969 464.281 79.7539L473.301 74.0475L473.393 75.244C463.207 82.1162 456.734 85.5522 453.973 85.5522Z" fill="#FFBF00"/>
</svg>
